<svg width="20" height="20" viewBox="0 0 20 20" fill="none" xmlns="http://www.w3.org/2000/svg">
<path d="M14.0875 3H2.63108C1.71845 3 1 3.78932 1 4.74482V11.7656C1 12.7419 1.73787 13.5105 2.63108 13.5105H14.0875C15.0001 13.5105 15.7186 12.7211 15.7186 11.7656V4.76559C15.7186 3.78932 15.0001 3 14.0875 3ZM6.80587 9.54307C6.74762 9.70924 6.65053 9.87542 6.53403 10C6.41752 10.1247 6.26218 10.2285 6.08742 10.3116C5.91266 10.3947 5.71849 10.4155 5.48548 10.4155C5.34955 10.4155 5.23305 10.3947 5.09712 10.3739C4.9612 10.3532 4.84469 10.3116 4.72819 10.2493C4.61168 10.2078 4.49518 10.1454 4.39809 10.0624C4.301 10 4.20391 9.91696 4.12624 9.83387L4.33983 9.43921C4.35925 9.41844 4.37867 9.3769 4.4175 9.3769C4.43692 9.35613 4.47576 9.35613 4.51459 9.35613C4.55343 9.35613 4.61168 9.3769 4.66993 9.41844C4.72819 9.45999 4.78644 9.50153 4.86411 9.56384C4.94178 9.60539 5.01945 9.6677 5.13596 9.70924C5.23305 9.75079 5.34955 9.77156 5.50489 9.77156C5.71849 9.77156 5.89325 9.70924 6.00975 9.60539C6.12626 9.50153 6.18451 9.33535 6.18451 9.12764C6.18451 9.00301 6.16509 8.91992 6.10684 8.83684C6.04859 8.77452 5.99033 8.71221 5.89325 8.64989C5.79616 8.60835 5.69907 8.5668 5.58256 8.52526C5.46606 8.48372 5.34955 8.46295 5.23305 8.4214C5.11654 8.37986 5.00003 8.33832 4.88353 8.276C4.76702 8.21369 4.66993 8.15137 4.57285 8.04751C4.47576 7.96443 4.41751 7.8398 4.35925 7.71517C4.301 7.56976 4.28158 7.40359 4.28158 7.21665C4.28158 7.05047 4.301 6.90507 4.37867 6.7389C4.43692 6.5935 4.53401 6.4481 4.6311 6.34424C4.7476 6.21961 4.88353 6.13652 5.05829 6.05343C5.23305 5.99112 5.4078 5.94958 5.6214 5.94958C5.85441 5.94958 6.08742 5.99112 6.2816 6.07421C6.47577 6.15729 6.65053 6.26115 6.80587 6.40655L6.6117 6.80121C6.59228 6.84276 6.57286 6.8843 6.53403 6.90507C6.51461 6.92584 6.47578 6.92584 6.43694 6.92584C6.3981 6.92584 6.35927 6.90507 6.30102 6.8843C6.26218 6.84276 6.20393 6.82198 6.12626 6.78044C6.068 6.7389 5.99033 6.69735 5.89325 6.67658C5.81557 6.63504 5.69907 6.63504 5.58256 6.63504C5.48548 6.63504 5.38839 6.65581 5.31072 6.67658C5.23305 6.69735 5.17479 6.7389 5.11654 6.78044C5.05829 6.82198 5.01945 6.8843 5.00003 6.94661C5.01945 6.98816 5.00003 7.07124 5.00003 7.15433C5.00003 7.25819 5.01945 7.34128 5.0777 7.40359C5.13596 7.46591 5.19421 7.52822 5.2913 7.56976C5.38839 7.61131 5.48547 7.65285 5.60198 7.69439C5.71849 7.73594 5.83499 7.77748 5.9515 7.81902C6.068 7.86057 6.18451 7.92288 6.30102 7.96443C6.41752 8.02674 6.51461 8.08906 6.6117 8.19291C6.70879 8.276 6.76704 8.37986 6.82529 8.52526C6.88355 8.64989 6.90296 8.81606 6.90296 8.98224C6.90296 9.18995 6.86413 9.3769 6.80587 9.54307ZM7.69909 10.3739C7.67967 10.4155 7.66025 10.457 7.64083 10.4986C7.62141 10.5401 7.58258 10.5609 7.54374 10.5817C7.50491 10.6024 7.46607 10.6232 7.42724 10.644C7.3884 10.6647 7.34957 10.6647 7.31073 10.6647H7.01947L8.66997 6.13652C8.7088 6.05343 8.74764 5.99112 8.80589 5.94958C8.86414 5.90803 8.94182 5.88726 9.01949 5.88726H9.31075L7.69909 10.3739Z" fill="white"/>
<path d="M17.3689 6.51032V13.5104C17.3689 14.4866 16.631 15.2552 15.7378 15.2552H4.28142C4.28142 16.2315 5.01929 17 5.9125 17H17.3689C18.2815 17 19 16.2107 19 15.2552V8.25514C19 7.29964 18.2621 6.51032 17.3689 6.51032Z" fill="white"/>
</svg>
