<svg width="16" height="16" viewBox="0 0 16 16" fill="none" xmlns="http://www.w3.org/2000/svg">
<path d="M14.3839 2.66667H13.5758V1.83333C13.5758 1.36667 13.2202 1 12.7677 1C12.3152 1 11.9596 1.36667 11.9596 1.83333V2.66667H8.72729V1.83333C8.72729 1.36667 8.37174 1 7.91921 1C7.46669 1 7.11113 1.36667 7.11113 1.83333V2.66667H3.87879V1.83333C3.87879 1.36667 3.52324 1 3.07071 1C2.61819 1 2.26263 1.36667 2.26263 1.83333V2.66667H1.61616C0.727273 2.66667 0 3.41667 0 4.33333V14.3333C0 15.25 0.727273 16 1.61616 16H14.3839C15.2728 16 16 15.25 16 14.3333V4.33333C16 3.41667 15.2728 2.66667 14.3839 2.66667ZM4.28284 13.5H3.47475C3.02223 13.5 2.66667 13.1333 2.66667 12.6667C2.66667 12.2 3.02223 11.8333 3.47475 11.8333C3.47475 11.8333 4.02425 11.8333 4.28284 11.8333C4.73537 11.8333 5.09093 12.2 5.09093 12.6667C5.09093 13.1333 4.73537 13.5 4.28284 13.5ZM4.28284 10.1667H3.47475C3.02223 10.1667 2.66667 9.8 2.66667 9.33333C2.66667 8.86667 3.02223 8.5 3.47475 8.5C3.47475 8.5 4.02425 8.5 4.28284 8.5C4.73537 8.5 5.09093 8.86667 5.09093 9.33333C5.09093 9.8 4.73537 10.1667 4.28284 10.1667ZM8.32325 13.5H7.51517C7.06265 13.5 6.70709 13.1333 6.70709 12.6667C6.70709 12.2 7.06265 11.8333 7.51517 11.8333C7.51517 11.8333 8.06467 11.8333 8.32325 11.8333C8.77578 11.8333 9.13134 12.2 9.13134 12.6667C9.13134 13.1333 8.77578 13.5 8.32325 13.5ZM8.32325 10.1667H7.51517C7.06265 10.1667 6.70709 9.8 6.70709 9.33333C6.70709 8.86667 7.06265 8.5 7.51517 8.5C7.51517 8.5 8.06467 8.5 8.32325 8.5C8.77578 8.5 9.13134 8.86667 9.13134 9.33333C9.13134 9.8 8.77578 10.1667 8.32325 10.1667ZM12.3637 13.5H11.5556C11.1031 13.5 10.7475 13.1333 10.7475 12.6667C10.7475 12.2 11.1031 11.8333 11.5556 11.8333C11.5556 11.8333 12.1051 11.8333 12.3637 11.8333C12.8162 11.8333 13.1717 12.2 13.1717 12.6667C13.1717 13.1333 12.8162 13.5 12.3637 13.5ZM12.3637 10.1667H11.5556C11.1031 10.1667 10.7475 9.8 10.7475 9.33333C10.7475 8.86667 11.1031 8.5 11.5556 8.5C11.5556 8.5 12.1051 8.5 12.3637 8.5C12.8162 8.5 13.1717 8.86667 13.1717 9.33333C13.1717 9.8 12.8162 10.1667 12.3637 10.1667Z" fill="#EF3340"/>
</svg>
