<svg width="20" height="20" viewBox="0 0 20 20" fill="none" xmlns="http://www.w3.org/2000/svg">
<path d="M18.3383 6.66669H14.9951C14.0653 6.66669 13.3333 7.41842 13.3333 8.32841V11.6716H11.6716V3.32346C11.6716 2.39369 10.9199 1.66174 10.0099 1.66174H5.00495C4.07517 1.66174 3.34322 2.41347 3.34322 3.32346V11.6716H1.66172C0.751731 11.6716 0 12.4036 0 13.3334V16.6568C0 17.5866 0.751731 18.3185 1.66172 18.3185H18.3185C19.2483 18.3185 19.9802 17.5668 19.9802 16.6568V13.3334V8.32841C20 7.41842 19.2483 6.66669 18.3383 6.66669ZM9.99011 6.66669H8.32839V8.32841H6.66667V6.66669H5.00495V5.00497H6.66667V3.34325H8.32839V5.00497H9.99011V6.66669ZM17.5074 14.9951H12.5025C12.0475 14.9951 11.6716 14.6192 11.6716 14.1642C11.6716 13.7092 12.0475 13.3334 12.5025 13.3334H17.5074C17.9624 13.3334 18.3383 13.7092 18.3383 14.1642C18.3383 14.6192 17.9624 14.9951 17.5074 14.9951ZM17.5074 11.6716H15.8259C15.3709 11.6716 14.9951 11.2958 14.9951 10.8408C14.9951 10.3858 15.3709 10.0099 15.8259 10.0099H17.4876C17.9426 10.0099 18.3185 10.3858 18.3185 10.8408C18.3185 11.2958 17.9624 11.6716 17.5074 11.6716Z" fill="white"/>
</svg>
