<svg width="20" height="20" viewBox="0 0 20 20" fill="none" xmlns="http://www.w3.org/2000/svg">
<path fill-rule="evenodd" clip-rule="evenodd" d="M12.3673 0H14.64C15.5688 0 16.3 0.752475 16.3 1.66337V18.3366C16.3 19.2475 15.5688 20 14.64 20H4.66003C3.75097 20 3 19.2673 3 18.3366V1.66337C3 0.752475 3.7312 0 4.66003 0H6.93269H8.75082H10.5492H12.3673ZM13.81 18.3564C14.2645 18.3564 14.64 17.9802 14.64 17.5248H14.6597V2.49505C14.6597 2.0396 14.2842 1.66337 13.8297 1.66337H12.3871V2.49505C12.3871 2.9505 11.9721 3.32673 11.478 3.32673H10.5689H8.75082H7.84175C7.3477 3.32673 6.93269 2.9505 6.93269 2.49505V1.66337H5.49004C5.03551 1.66337 4.66003 2.0396 4.66003 2.49505V17.5248C4.66003 17.9802 5.03551 18.3564 5.49004 18.3564H13.81ZM7.98027 17.5247H11.3201C11.7746 17.5247 12.1501 17.1485 12.1501 16.693C12.1501 16.2376 11.7746 15.8613 11.3201 15.8613H7.98027C7.52574 15.8613 7.15026 16.2376 7.15026 16.693C7.15026 17.1485 7.52574 17.5247 7.98027 17.5247Z" fill="#F7F8FC"/>
</svg>
