<svg width="80" height="68" viewBox="0 0 80 68" fill="none" xmlns="http://www.w3.org/2000/svg">
<ellipse cx="52" cy="62.3012" rx="28" ry="5.69857" fill="#F0F2FA"/>
<path d="M63.9802 53.9303L59.1948 56.5686L59.545 55.1331L63.9802 53.9303Z" fill="#57617F"/>
<path d="M39.7419 1.51245L35.3066 3.95677L38.6136 5.62512L40.7535 3.1032L39.7419 1.51245Z" fill="#F97A7A"/>
<path d="M42.4653 40.1958C44.7997 46.2484 48.0678 51.9518 52.1918 57.112C63.9802 57.112 73.979 48.4599 75.652 36.8203L77.5973 23.2795L73.162 25.7627L42.4653 40.1958Z" fill="#57617F"/>
<path d="M39.7418 1.51315L38.8081 8.18654C37.2519 19.089 38.5747 30.1078 42.4652 40.2343L73.0841 25.7624L77.5193 23.2793L60.323 0L39.7418 1.51315Z" fill="#F97A7A"/>
<path d="M43.7495 51.9907C36.3963 42.7954 33.1282 30.8066 34.8011 19.1669L36.7464 5.50977L55.1099 4.19061L71.3726 26.1895L69.544 39.0707C68.0656 49.5851 59.0783 57.5777 48.496 57.9657L43.7495 51.9907Z" fill="#FDFDFD"/>
<path d="M54.2926 5.8584L69.6604 26.5769L67.9097 38.7985C67.2094 43.6484 64.7972 48.1102 61.1012 51.2917C57.7942 54.1628 53.6312 55.9088 49.2349 56.2192L45.0331 50.9425C37.9522 42.0964 34.8009 30.5732 36.396 19.3604L38.1468 7.02236L54.2926 5.8584ZM55.8878 2.48291L35.3066 3.99606L33.1668 18.9336C31.4161 31.0776 34.8009 43.4156 42.4653 53.0377L47.7176 59.5947C59.506 59.5947 69.5048 50.9425 71.1777 39.3029L73.123 25.7622L55.8878 2.48291Z" fill="#FFB75E"/>
<path d="M52.3654 20.7194L52.3654 20.7194L52.3637 20.7185C51.5658 20.3039 50.8243 20.0186 50.1395 19.8466C49.4465 19.6725 48.8046 19.6501 48.2384 19.7705C47.6656 19.8922 47.193 20.1601 46.813 20.6131C46.4372 21.0612 46.1811 21.6419 46.0548 22.3982C46.0388 22.4942 46.0798 22.5907 46.1601 22.6456L47.7205 23.7144C47.7986 23.7755 47.8749 23.8255 47.94 23.867C47.954 23.8759 47.9672 23.8843 47.9796 23.8922C48.0304 23.9244 48.0687 23.9487 48.1019 23.9731C48.1156 23.9832 48.1302 23.9919 48.1456 23.999C48.2903 24.0656 48.4313 24.1236 48.5652 24.1592C48.6953 24.1938 48.8333 24.2114 48.9712 24.1858C49.2726 24.1495 49.4709 23.9271 49.5701 23.6355C49.7202 23.2557 49.9916 23.0376 50.3687 22.9621C50.744 22.887 51.2619 23.0015 51.9467 23.38L51.9466 23.3801L51.9546 23.3842C52.3361 23.5774 52.6611 23.8061 52.9494 24.054L52.9493 24.0541L52.9554 24.0591C53.2547 24.3003 53.4999 24.5772 53.7095 24.8752C53.9223 25.1963 54.0907 25.509 54.2019 25.8332C54.3131 26.1576 54.3692 26.5002 54.3692 26.8625C54.3692 27.2623 54.3129 27.5988 54.2073 27.8772C54.0791 28.1624 53.9147 28.4157 53.7122 28.6543C53.491 28.8736 53.212 29.0792 52.8928 29.2522C52.562 29.4314 52.1696 29.6124 51.7331 29.7953L46.4321 31.8483L46.4321 31.8483L46.4277 31.8501C46.2091 31.9395 46.0158 32.0835 45.9008 32.2953L45.9006 32.2952L45.8954 32.3059C45.7995 32.5046 45.75 32.7081 45.75 32.9328V33.8581C45.75 33.9505 45.8009 34.0353 45.8825 34.0788L57.8368 40.4451C57.9143 40.4864 58.0078 40.484 58.083 40.4388C58.1583 40.3936 58.2043 40.3122 58.2043 40.2245V38.5773C58.2043 38.2393 58.0825 37.9139 57.8804 37.6232C57.6724 37.3054 57.3769 37.0575 57.0256 36.8753C57.0253 36.8752 57.0249 36.875 57.0246 36.8748L52.55 34.509C52.2179 34.3181 51.8454 34.1465 51.452 34.0125C51.302 33.9512 51.1483 33.8929 50.9922 33.8389L54.2701 32.4986C54.2704 32.4985 54.2707 32.4984 54.271 32.4983C54.7386 32.3109 55.1852 32.1053 55.6252 31.9026L55.6279 31.9014L55.6279 31.9014L55.6319 31.8995C56.0737 31.6863 56.4563 31.4324 56.7977 31.1179C57.1465 30.7966 57.4038 30.4189 57.6139 30.0124C57.6145 30.0112 57.6151 30.0099 57.6158 30.0087C57.6173 30.0055 57.6188 30.0023 57.6203 29.9991C57.8179 29.554 57.9231 29.0185 57.9231 28.3986C57.9231 27.6796 57.7754 26.9468 57.5056 26.2203C57.2368 25.4966 56.8645 24.7914 56.3683 24.1243C55.8922 23.4574 55.2954 22.833 54.622 22.2503C53.9435 21.6632 53.1842 21.1531 52.3654 20.7194Z" fill="#EF3340" stroke="#EF3340" stroke-width="0.5" stroke-linecap="round" stroke-linejoin="round"/>
<path d="M17.9211 56.5946C25.6969 56.5946 32.0004 52.6219 32.0004 47.7212C32.0004 42.8206 25.6969 38.8479 17.9211 38.8479C10.1453 38.8479 3.8418 42.8206 3.8418 47.7212C3.8418 52.6219 10.1453 56.5946 17.9211 56.5946Z" fill="#F97A7A"/>
<path d="M11.4889 23.5962C11.4889 23.5962 7.59383 27.9438 4.41349 35.855C1.23314 43.7661 4.41349 50.2519 4.41349 50.2519L17.921 56.5951V21.7788L11.4889 23.5962Z" fill="#F97A7A"/>
<path d="M24.246 23.4537C24.246 23.4537 28.2482 27.9082 31.3928 35.855C34.5374 43.8018 31.3928 50.2519 31.3928 50.2519L17.8853 56.5951V21.7788L24.246 23.4537Z" fill="#F97A7A"/>
<path d="M17.921 26.1269C20.7432 26.1269 23.031 24.675 23.031 22.884C23.031 21.093 20.7432 19.6411 17.921 19.6411C15.0989 19.6411 12.811 21.093 12.811 22.884C12.811 24.675 15.0989 26.1269 17.921 26.1269Z" stroke="#57617F" stroke-width="7.3731" stroke-miterlimit="10"/>
<path d="M9.48779 11.0885C9.48779 11.0885 10.4884 18.2514 13.3114 22.9909C13.3114 22.9909 14.705 25.2716 17.7781 25.2716C21.2086 25.2716 22.495 22.9909 22.495 22.9909C22.495 22.9909 25.6754 18.0732 25.6754 13.69L9.48779 11.0885Z" fill="#F97A7A"/>
<path d="M15.6337 8.30845C13.1681 6.88301 7.70073 10.4466 10.0949 11.8364C12.4891 13.2262 9.52318 14.8655 12.5606 16.6116C15.598 18.3578 16.0268 18.1796 18.9213 16.5047C21.8157 14.8298 22.9592 16.0414 25.0318 14.6516C27.1044 13.2618 26.2468 11.088 21.6728 8.45099C19.493 7.20373 17.8492 9.62698 15.6337 8.30845Z" fill="#EF3F54"/>
<path d="M15.9917 33.5031C16.3133 33.8595 16.5635 34.2871 16.8136 34.6791L16.3848 35.3918C16.3133 35.4987 16.2419 35.57 16.2061 35.6056C16.1346 35.6413 16.0632 35.6413 15.9917 35.6413C15.9202 35.6056 15.8488 35.57 15.7773 35.4631C15.7058 35.3918 15.5986 35.2849 15.4914 35.1424C15.3842 35.0354 15.277 34.8929 15.1341 34.7504C14.9912 34.6078 14.8482 34.5009 14.7053 34.394L14.3479 38.207C14.6338 38.4565 14.9554 38.7059 15.2413 38.9554C15.5272 39.2048 15.7773 39.5256 16.0274 39.8463C16.2419 40.167 16.4205 40.559 16.5635 41.0223C16.7064 41.4499 16.7421 41.9844 16.7421 42.5546C16.7064 43.1248 16.6349 43.6593 16.492 44.1226C16.3491 44.5859 16.1346 44.9779 15.8845 45.2986C15.6344 45.6193 15.3128 45.8331 14.9554 45.94C14.5981 46.0469 14.1693 46.0826 13.7047 45.9757L13.5975 47.3298C13.5975 47.4724 13.5261 47.5793 13.4546 47.6862C13.3831 47.7931 13.2759 47.8287 13.1687 47.7575L12.597 47.5793L12.7756 45.6193C12.3111 45.3699 11.8465 45.0135 11.4177 44.5859C10.9889 44.1582 10.6316 43.6593 10.3457 43.1248L10.846 42.2339C10.8817 42.1626 10.9532 42.0914 11.0247 42.0557C11.0961 42.0201 11.1676 42.0201 11.2391 42.0201C11.3463 42.0557 11.4177 42.127 11.5249 42.2695C11.6321 42.4121 11.7393 42.5546 11.8823 42.7328C12.0252 42.911 12.1681 43.0892 12.3111 43.2673C12.4898 43.4455 12.6684 43.6237 12.9186 43.7662L13.2759 39.6681C12.99 39.4543 12.7042 39.2048 12.4183 38.9554C12.0609 38.6347 11.8108 38.3496 11.5607 37.9932C11.3463 37.6369 11.1676 37.2092 11.0247 36.746C10.8817 36.2827 10.846 35.7125 10.846 35.0711C10.846 34.6078 10.9532 34.1445 11.0961 33.7525C11.2391 33.3249 11.4535 33.0042 11.7036 32.7191C11.9537 32.434 12.2754 32.2558 12.6327 32.1489C12.99 32.042 13.4188 32.042 13.8834 32.2202L13.9906 31.0442C13.9906 30.9017 14.0621 30.7591 14.1335 30.6879C14.205 30.581 14.3122 30.581 14.4551 30.6166L15.0269 30.7948L14.8482 32.6122C15.3128 32.826 15.6701 33.1467 15.9917 33.5031ZM12.3468 35.3562C12.3468 35.6056 12.3468 35.8194 12.4183 35.9976C12.454 36.2114 12.5255 36.3896 12.6327 36.5678C12.7399 36.746 12.8471 36.8885 12.9543 37.0667C13.0972 37.2092 13.2402 37.3518 13.3831 37.4943L13.7047 34.1089C13.4546 34.0733 13.2759 34.0733 13.0972 34.1445C12.9186 34.1802 12.7756 34.2871 12.6684 34.394C12.5612 34.5009 12.4898 34.6434 12.4183 34.8216C12.3826 34.9642 12.3468 35.1424 12.3468 35.3562ZM15.2056 42.4477C15.2056 42.1983 15.2056 41.9844 15.1341 41.8063C15.0984 41.6281 15.0269 41.4143 14.9197 41.2717C14.8125 41.0935 14.7053 40.951 14.5623 40.8085C14.4194 40.6659 14.2765 40.5234 14.1335 40.3808L13.7762 44.087C14.205 44.1582 14.5623 44.0157 14.8125 43.7306C15.0626 43.4812 15.1698 43.0535 15.2056 42.4477Z" fill="#FDFDFD"/>
<path d="M7.6948 64.693C11.9445 64.693 15.3896 62.5067 15.3896 59.8098C15.3896 57.1129 11.9445 54.9266 7.6948 54.9266C3.44508 54.9266 0 57.1129 0 59.8098C0 62.5067 3.44508 64.693 7.6948 64.693Z" fill="#FFB75E"/>
<path d="M15.3896 56.74H0V59.8094H15.3896V56.74Z" fill="#FFB75E"/>
<path d="M7.6948 61.6234C11.9445 61.6234 15.3896 59.4371 15.3896 56.7402C15.3896 54.0432 11.9445 51.8569 7.6948 51.8569C3.44508 51.8569 0 54.0432 0 56.7402C0 59.4371 3.44508 61.6234 7.6948 61.6234Z" fill="#FFD385"/>
<path d="M7.6948 59.7068C11.9445 59.7068 15.3896 57.5205 15.3896 54.8236C15.3896 52.1266 11.9445 49.9404 7.6948 49.9404C3.44508 49.9404 0 52.1266 0 54.8236C0 57.5205 3.44508 59.7068 7.6948 59.7068Z" fill="#FFB75E"/>
<path d="M15.3896 51.7537H0V54.8232H15.3896V51.7537Z" fill="#FFB75E"/>
<path d="M7.6948 56.637C11.9445 56.637 15.3896 54.4508 15.3896 51.7538C15.3896 49.0569 11.9445 46.8706 7.6948 46.8706C3.44508 46.8706 0 49.0569 0 51.7538C0 54.4508 3.44508 56.637 7.6948 56.637Z" fill="#FFD385"/>
</svg>
